<?xml version="1.0" encoding="UTF-8"?>
<svg width="1000px" height="1000px" viewBox="0 0 1000 1000" version="1.1" xmlns="http://www.w3.org/2000/svg" xmlns:xlink="http://www.w3.org/1999/xlink">
    <title>banner</title>
    <defs>
        <polygon id="path-1" points="0 1.13686838e-13 479.9995 1.13686838e-13 479.9995 480 0 480"></polygon>
        <polygon id="path-3" points="0 1000 1000.573 1000 1000.573 0 0 0"></polygon>
    </defs>
    <g id="banner" stroke="none" stroke-width="1" fill="none" fill-rule="evenodd">
        <g id="Group-90" transform="translate(-0.000000, 0.000000)">
            <polygon id="Fill-1" fill="#E7581B" points="520.19 240 1000.19 240 1000.19 0 520.19 0"></polygon>
            <polygon id="Fill-2" fill="#40996B" points="520.19 480 1000.19 480 1000.19 240.001 520.19 240.001"></polygon>
            <g id="Group-89">
                <path d="M280.1897,679 L280.1897,0 L520.1897,0 L520.1897,679 C520.1897,745.274 466.4637,799 400.1897,799 C333.9157,799 280.1897,745.274 280.1897,679" id="Fill-3" fill="#BADDCC"></path>
                <path d="M619.4709,359.8203 C619.4709,397.3573 649.9029,427.7893 687.4399,427.7893 C688.6999,427.7893 689.9479,427.7563 691.1899,427.6853 L691.1899,479.7583 C689.9429,479.8013 688.6959,479.8203 687.4399,479.8203 C621.1679,479.8203 567.4399,426.0913 567.4399,359.8203 C567.4399,293.5483 621.1679,239.8203 687.4399,239.8203 C688.6959,239.8203 689.9429,239.8393 691.1899,239.8813 L691.1899,291.9543 C689.9479,291.8843 688.6999,291.8513 687.4399,291.8513 C649.9029,291.8513 619.4709,322.2823 619.4709,359.8203" id="Fill-5" fill="#FACB9A"></path>
                <path d="M691.1897,291.9546 L691.1897,427.6856 C689.9477,427.7556 688.7007,427.7886 687.4397,427.7886 C649.9027,427.7886 619.4707,397.3576 619.4707,359.8206 C619.4707,322.2826 649.9027,291.8516 687.4397,291.8516 C688.7007,291.8516 689.9477,291.8846 691.1897,291.9546" id="Fill-7" fill="#F49B27"></path>
                <path d="M755.4084,359.8203 C755.4084,396.0963 726.9834,425.7403 691.1894,427.6853 L691.1894,291.9543 C726.9834,293.9003 755.4084,323.5443 755.4084,359.8203" id="Fill-9" fill="#FDD687"></path>
                <path d="M807.4397,359.8203 C807.4397,424.8363 755.7267,477.7813 691.1897,479.7583 L691.1897,427.6853 C726.9837,425.7403 755.4087,396.0963 755.4087,359.8203 C755.4087,323.5443 726.9837,293.9003 691.1897,291.9543 L691.1897,239.8813 C755.7267,241.8593 807.4397,294.8043 807.4397,359.8203" id="Fill-11" fill="#E7581B"></path>
                <path d="M933.9426,239.9712 L933.9426,479.8492 C932.6646,479.8912 931.3856,479.9102 930.0976,479.9102 C862.1676,479.9102 807.0936,426.1812 807.0936,359.9102 C807.0936,293.6382 862.1676,239.9102 930.0976,239.9102 C931.3856,239.9102 932.6646,239.9292 933.9426,239.9712" id="Fill-13" fill="#C3DFEB"></path>
                <path d="M933.9426,359.9102 C933.9426,396.1862 963.0796,425.8302 999.7686,427.7752 L999.7686,292.0442 C963.0796,293.9902 933.9426,323.6342 933.9426,359.9102" id="Fill-15" fill="#FDD687"></path>
                <path d="M876.1477,0.5557 L876.1477,240.4337 C877.3947,240.4757 878.6417,240.4947 879.8977,240.4947 C946.1687,240.4947 999.8977,186.7667 999.8977,120.4947 C999.8977,54.2227 946.1687,0.4947 879.8977,0.4947 C878.6417,0.4947 877.3947,0.5137 876.1477,0.5557" id="Fill-17" fill="#C3DFEB"></path>
                <path d="M876.1477,120.4946 C876.1477,156.7706 847.7227,186.4146 811.9287,188.3606 L811.9287,52.6286 C847.7227,54.5746 876.1477,84.2176 876.1477,120.4946" id="Fill-19" fill="#FDD687"></path>
                <path d="M643.679,0.5557 L643.679,240.4337 C642.432,240.4757 641.185,240.4947 639.929,240.4947 C573.658,240.4947 519.929,186.7667 519.929,120.4947 C519.929,54.2227 573.658,0.4947 639.929,0.4947 C641.185,0.4947 642.432,0.5137 643.679,0.5557" id="Fill-21" fill="#C3DFEB"></path>
                <path d="M643.679,120.4946 C643.679,156.7706 672.104,186.4146 707.898,188.3606 L707.898,52.6286 C672.104,54.5746 643.679,84.2176 643.679,120.4946" id="Fill-23" fill="#FDD687"></path>
                <polygon id="Fill-25" fill="#F49B27" points="1000.1897 959.6504 865.9897 959.6504 520.1897 613.8494 520.1897 479.6504"></polygon>
                <polygon id="Fill-27" fill="#F49B27" points="865.9895 959.6504 520.1895 959.6504 520.1895 613.8494"></polygon>
                <g id="Group-31" transform="translate(520.573500, 479.829100)">
                    <mask id="mask-2" fill="white">
                        <use xlink:href="#path-1"></use>
                    </mask>
                    <g id="Clip-30"></g>
                    <polygon id="Fill-29" fill="#C3E0C7" mask="url(#mask-2)" points="480 480 480 1.13686838e-13 0 1.13686838e-13"></polygon>
                </g>
                <path d="M956.0422,512.4072 C956.0422,520.1742 949.7462,526.4702 941.9792,526.4702 C934.2132,526.4702 927.9172,520.1742 927.9172,512.4072 C927.9172,504.6402 934.2132,498.3442 941.9792,498.3442 C949.7462,498.3442 956.0422,504.6402 956.0422,512.4072" id="Fill-32" fill="#40996B"></path>
                <path d="M891.636,512.4072 C891.636,521.4682 884.29,528.8132 875.23,528.8132 C866.168,528.8132 858.823,521.4682 858.823,512.4072 C858.823,503.3452 866.168,496.0012 875.23,496.0012 C884.29,496.0012 891.636,503.3452 891.636,512.4072" id="Fill-34" fill="#40996B"></path>
                <path d="M827.2297,512.4072 C827.2297,522.7612 818.8347,531.1572 808.4797,531.1572 C798.1247,531.1572 789.7297,522.7612 789.7297,512.4072 C789.7297,502.0522 798.1247,493.6572 808.4797,493.6572 C818.8347,493.6572 827.2297,502.0522 827.2297,512.4072" id="Fill-36" fill="#40996B"></path>
                <path d="M762.8235,512.4072 C762.8235,524.0562 753.3795,533.5012 741.7295,533.5012 C730.0795,533.5012 720.6355,524.0562 720.6355,512.4072 C720.6355,500.7572 730.0795,491.3132 741.7295,491.3132 C753.3795,491.3132 762.8235,500.7572 762.8235,512.4072" id="Fill-38" fill="#40996B"></path>
                <path d="M698.4172,512.4072 C698.4172,525.3502 687.9242,535.8442 674.9802,535.8442 C662.0352,535.8442 651.5422,525.3502 651.5422,512.4072 C651.5422,499.4632 662.0352,488.9702 674.9802,488.9702 C687.9242,488.9702 698.4172,499.4632 698.4172,512.4072" id="Fill-40" fill="#40996B"></path>
                <path d="M634.011,512.4072 C634.011,526.6452 622.468,538.1882 608.23,538.1882 C593.99,538.1882 582.448,526.6452 582.448,512.4072 C582.448,498.1682 593.99,486.6262 608.23,486.6262 C622.468,486.6262 634.011,498.1682 634.011,512.4072" id="Fill-42" fill="#40996B"></path>
                <path d="M973.1047,660.1572 C973.1047,670.5112 964.7097,678.9072 954.3547,678.9072 C943.9997,678.9072 935.6047,670.5112 935.6047,660.1572 C935.6047,649.8022 943.9997,641.4072 954.3547,641.4072 C964.7097,641.4072 973.1047,649.8022 973.1047,660.1572" id="Fill-44" fill="#40996B"></path>
                <path d="M908.6985,660.1572 C908.6985,671.8062 899.2545,681.2512 887.6045,681.2512 C875.9545,681.2512 866.5105,671.8062 866.5105,660.1572 C866.5105,648.5072 875.9545,639.0632 887.6045,639.0632 C899.2545,639.0632 908.6985,648.5072 908.6985,660.1572" id="Fill-46" fill="#40996B"></path>
                <path d="M844.2922,660.1572 C844.2922,673.1002 833.7992,683.5942 820.8552,683.5942 C807.9102,683.5942 797.4172,673.1002 797.4172,660.1572 C797.4172,647.2132 807.9102,636.7202 820.8552,636.7202 C833.7992,636.7202 844.2922,647.2132 844.2922,660.1572" id="Fill-48" fill="#40996B"></path>
                <path d="M779.886,660.1572 C779.886,674.3952 768.343,685.9382 754.105,685.9382 C739.865,685.9382 728.323,674.3952 728.323,660.1572 C728.323,645.9182 739.865,634.3762 754.105,634.3762 C768.343,634.3762 779.886,645.9182 779.886,660.1572" id="Fill-50" fill="#40996B"></path>
                <path d="M981.636,734.0322 C981.636,745.6812 972.192,755.1262 960.542,755.1262 C948.892,755.1262 939.448,745.6812 939.448,734.0322 C939.448,722.3822 948.892,712.9382 960.542,712.9382 C972.192,712.9382 981.636,722.3822 981.636,734.0322" id="Fill-52" fill="#40996B"></path>
                <path d="M917.2297,734.0322 C917.2297,746.9752 906.7367,757.4692 893.7927,757.4692 C880.8477,757.4692 870.3547,746.9752 870.3547,734.0322 C870.3547,721.0882 880.8477,710.5952 893.7927,710.5952 C906.7367,710.5952 917.2297,721.0882 917.2297,734.0322" id="Fill-54" fill="#40996B"></path>
                <path d="M852.8235,734.0322 C852.8235,748.2702 841.2805,759.8132 827.0425,759.8132 C812.8025,759.8132 801.2605,748.2702 801.2605,734.0322 C801.2605,719.7932 812.8025,708.2512 827.0425,708.2512 C841.2805,708.2512 852.8235,719.7932 852.8235,734.0322" id="Fill-56" fill="#40996B"></path>
                <path d="M990.1672,807.9072 C990.1672,820.8502 979.6742,831.3442 966.7302,831.3442 C953.7852,831.3442 943.2922,820.8502 943.2922,807.9072 C943.2922,794.9632 953.7852,784.4702 966.7302,784.4702 C979.6742,784.4702 990.1672,794.9632 990.1672,807.9072" id="Fill-58" fill="#40996B"></path>
                <path d="M925.761,807.9072 C925.761,822.1452 914.218,833.6882 899.98,833.6882 C885.74,833.6882 874.198,822.1452 874.198,807.9072 C874.198,793.6682 885.74,782.1262 899.98,782.1262 C914.218,782.1262 925.761,793.6682 925.761,807.9072" id="Fill-60" fill="#40996B"></path>
                <path d="M998.6985,881.7822 C998.6985,896.0202 987.1555,907.5632 972.9175,907.5632 C958.6775,907.5632 947.1355,896.0202 947.1355,881.7822 C947.1355,867.5432 958.6775,856.0012 972.9175,856.0012 C987.1555,856.0012 998.6985,867.5432 998.6985,881.7822" id="Fill-62" fill="#40996B"></path>
                <path d="M964.5735,586.2822 C964.5735,595.3432 957.2275,602.6882 948.1675,602.6882 C939.1055,602.6882 931.7605,595.3432 931.7605,586.2822 C931.7605,577.2202 939.1055,569.8762 948.1675,569.8762 C957.2275,569.8762 964.5735,577.2202 964.5735,586.2822" id="Fill-64" fill="#40996B"></path>
                <path d="M900.1672,586.2822 C900.1672,596.6362 891.7722,605.0322 881.4172,605.0322 C871.0622,605.0322 862.6672,596.6362 862.6672,586.2822 C862.6672,575.9272 871.0622,567.5322 881.4172,567.5322 C891.7722,567.5322 900.1672,575.9272 900.1672,586.2822" id="Fill-66" fill="#40996B"></path>
                <path d="M835.761,586.2822 C835.761,597.9312 826.317,607.3762 814.667,607.3762 C803.017,607.3762 793.573,597.9312 793.573,586.2822 C793.573,574.6322 803.017,565.1882 814.667,565.1882 C826.317,565.1882 835.761,574.6322 835.761,586.2822" id="Fill-68" fill="#40996B"></path>
                <path d="M771.3547,586.2822 C771.3547,599.2252 760.8617,609.7192 747.9177,609.7192 C734.9727,609.7192 724.4797,599.2252 724.4797,586.2822 C724.4797,573.3382 734.9727,562.8452 747.9177,562.8452 C760.8617,562.8452 771.3547,573.3382 771.3547,586.2822" id="Fill-70" fill="#40996B"></path>
                <path d="M706.9485,586.2822 C706.9485,600.5202 695.4055,612.0632 681.1675,612.0632 C666.9275,612.0632 655.3855,600.5202 655.3855,586.2822 C655.3855,572.0432 666.9275,560.5012 681.1675,560.5012 C695.4055,560.5012 706.9485,572.0432 706.9485,586.2822" id="Fill-72" fill="#40996B"></path>
                <mask id="mask-4" fill="white">
                    <use xlink:href="#path-3"></use>
                </mask>
                <g id="Clip-75"></g>
                <polygon id="Fill-74" fill="#CCCBCB" mask="url(#mask-4)" points="280.495 476.191 520.495 476.191 520.495 236.191 280.495 236.191"></polygon>
                <path d="M520.261,295.957 C520.261,328.835 493.608,355.488 460.73,355.488 C427.852,355.488 401.198,328.835 401.198,295.957 C401.198,263.079 427.852,236.426 460.73,236.426 C493.608,236.426 520.261,263.079 520.261,295.957" id="Fill-76" fill="#848585" mask="url(#mask-4)"></path>
                <path d="M399.7922,416.8945 C399.7922,449.7725 373.1392,476.4255 340.2612,476.4255 C307.3832,476.4255 280.7292,449.7725 280.7292,416.8945 C280.7292,384.0165 307.3832,357.3635 340.2612,357.3635 C373.1392,357.3635 399.7922,384.0165 399.7922,416.8945" id="Fill-77" fill="#848585" mask="url(#mask-4)"></path>
                <path d="M520.261,416.8945 C520.261,449.7725 493.608,476.4255 460.73,476.4255 C427.852,476.4255 401.198,449.7725 401.198,416.8945 C401.198,384.0165 427.852,357.3635 460.73,357.3635 C493.608,357.3635 520.261,384.0165 520.261,416.8945" id="Fill-78" fill="#848585" mask="url(#mask-4)"></path>
                <polyline id="Fill-79" fill="#848585" mask="url(#mask-4)" points="280.7297 355.4883 400.7297 356.4253 280.7297 236.4253"></polyline>
                <polygon id="Fill-80" fill="#C3DFEB" mask="url(#mask-4)" points="57.19 476.657 279.987 476.657 279.987 236.657 57.19 236.657"></polygon>
                <path d="M277.3538,296.4224 C277.3538,329.3004 250.7008,355.9544 217.8228,355.9544 C184.9448,355.9544 158.2908,329.3004 158.2908,296.4224 C158.2908,263.5444 184.9448,236.8914 217.8228,236.8914 C250.7008,236.8914 277.3538,263.5444 277.3538,296.4224" id="Fill-81" fill="#70BFE6" mask="url(#mask-4)"></path>
                <path d="M119.0627,417.5596 C119.0627,450.4386 92.4097,477.0906 59.5317,477.0906 C26.6527,477.0906 -0.0003,450.4386 -0.0003,417.5596 C-0.0003,384.6816 26.6527,358.0286 59.5317,358.0286 C92.4097,358.0286 119.0627,384.6816 119.0627,417.5596" id="Fill-82" fill="#70BFE6" mask="url(#mask-4)"></path>
                <path d="M277.3538,417.3604 C277.3538,450.2384 250.7008,476.8914 217.8228,476.8914 C184.9448,476.8914 158.2908,450.2384 158.2908,417.3604 C158.2908,384.4814 184.9448,357.8294 217.8228,357.8294 C250.7008,357.8294 277.3538,384.4814 277.3538,417.3604" id="Fill-83" fill="#52A3DA" mask="url(#mask-4)"></path>
                <polyline id="Fill-84" fill="#F49B27" mask="url(#mask-4)" points="37.8225 355.9541 157.8225 356.8911 37.8225 236.8911"></polyline>
                <path d="M195.1897,649 C195.1897,676.614 172.8037,699 145.1897,699 C117.5757,699 95.1897,676.614 95.1897,649 C95.1897,621.386 117.5757,599 145.1897,599 C172.8037,599 195.1897,621.386 195.1897,649" id="Fill-85" fill="#70BFE6" mask="url(#mask-4)"></path>
                <path d="M476.0295,960 C476.0295,982.092 458.1215,1000 436.0295,1000 C413.9385,1000 396.0295,982.092 396.0295,960 C396.0295,937.908 413.9385,920 436.0295,920 C458.1215,920 476.0295,937.908 476.0295,960" id="Fill-86" fill="#F49B27" mask="url(#mask-4)"></path>
                <path d="M139.1897,880 C139.1897,893.807 127.9967,905 114.1897,905 C100.3827,905 89.1897,893.807 89.1897,880 C89.1897,866.193 100.3827,855 114.1897,855 C127.9967,855 139.1897,866.193 139.1897,880" id="Fill-87" fill="#52A3DA" mask="url(#mask-4)"></path>
                <polyline id="Fill-88" fill="#F49B27" mask="url(#mask-4)" points="251.7991 799.3906 252.1901 749.3906 202.1901 799.3906"></polyline>
            </g>
        </g>
    </g>
</svg>