<svg width="462" height="463" viewBox="0 0 462 463" fill="none" xmlns="http://www.w3.org/2000/svg">
<path fill-rule="evenodd" clip-rule="evenodd" d="M231.678 462.475C209.358 462.475 191.266 444.385 191.266 422.049C191.266 399.714 209.358 381.624 231.678 381.624C253.984 381.624 272.076 399.714 272.076 422.049C272.076 444.385 253.984 462.475 231.678 462.475Z" fill="#212121"/>
<path fill-rule="evenodd" clip-rule="evenodd" d="M143.64 407.95C123.355 407.95 106.921 391.49 106.921 371.191C106.921 350.891 123.355 334.432 143.64 334.432C163.926 334.432 180.374 350.891 180.374 371.191C180.374 391.49 163.926 407.95 143.64 407.95Z" fill="#212121"/>
<path fill-rule="evenodd" clip-rule="evenodd" d="M55.6129 353.408C37.3616 353.408 22.5586 338.595 22.5586 320.331C22.5586 302.067 37.3616 287.254 55.6129 287.254C73.8642 287.254 88.6673 302.067 88.6673 320.331C88.6673 338.595 73.8642 353.408 55.6129 353.408Z" fill="black"/>
<path fill-rule="evenodd" clip-rule="evenodd" d="M264.731 320.331C264.731 338.595 249.928 353.408 231.677 353.408C213.425 353.408 198.622 338.595 198.622 320.331C198.622 302.067 213.425 287.254 231.677 287.254C249.928 287.254 264.731 302.067 264.731 320.331Z" fill="#212121"/>
<path fill-rule="evenodd" clip-rule="evenodd" d="M406.387 353.408C388.136 353.408 373.333 338.595 373.333 320.331C373.333 302.067 388.136 287.254 406.387 287.254C424.638 287.254 439.441 302.067 439.441 320.331C439.441 338.595 424.638 353.408 406.387 353.408Z" fill="black"/>
<path fill-rule="evenodd" clip-rule="evenodd" d="M319.7 407.95C299.414 407.95 282.981 391.49 282.981 371.191C282.981 350.891 299.414 334.432 319.7 334.432C339.986 334.432 356.433 350.891 356.433 371.191C356.433 391.49 339.986 407.95 319.7 407.95Z" fill="#212121"/>
<path fill-rule="evenodd" clip-rule="evenodd" d="M349.09 269.471C349.09 285.714 335.931 298.881 319.7 298.881C303.483 298.881 290.325 285.714 290.325 269.471C290.325 253.229 303.483 240.061 319.7 240.061C335.931 240.061 349.09 253.229 349.09 269.471Z" fill="black"/>
<path fill-rule="evenodd" clip-rule="evenodd" d="M173.027 269.471C173.027 285.714 159.869 298.881 143.638 298.881C127.421 298.881 114.262 285.714 114.262 269.471C114.262 253.229 127.421 240.061 143.638 240.061C159.869 240.061 173.027 253.229 173.027 269.471Z" fill="black"/>
<path fill-rule="evenodd" clip-rule="evenodd" d="M165.681 167.751C165.681 179.937 155.812 189.798 143.649 189.798C131.472 189.798 121.603 179.937 121.603 167.751C121.603 155.566 131.472 145.705 143.649 145.705C155.812 145.705 165.681 155.566 165.681 167.751Z" fill="#212121"/>
<path fill-rule="evenodd" clip-rule="evenodd" d="M81.3219 218.611C81.3219 232.818 69.8085 244.339 55.6114 244.339C41.4143 244.339 29.9009 232.818 29.9009 218.611C29.9009 204.404 41.4143 192.883 55.6114 192.883C69.8085 192.883 81.3219 204.404 81.3219 218.611Z" fill="#212121"/>
<path fill-rule="evenodd" clip-rule="evenodd" d="M73.9769 116.891C73.9769 127.041 65.7529 135.271 55.6101 135.271C45.4673 135.271 37.2434 127.041 37.2434 116.891C37.2434 106.741 45.4673 98.512 55.6101 98.512C65.7529 98.512 73.9769 106.741 73.9769 116.891Z" fill="#212121"/>
<path fill-rule="evenodd" clip-rule="evenodd" d="M257.384 218.611C257.384 232.818 245.871 244.339 231.674 244.339C217.477 244.339 205.963 232.818 205.963 218.611C205.963 204.404 217.477 192.883 231.674 192.883C245.871 192.883 257.384 204.404 257.384 218.611Z" fill="black"/>
<path fill-rule="evenodd" clip-rule="evenodd" d="M250.039 116.891C250.039 127.041 241.815 135.271 231.672 135.271C221.53 135.271 213.306 127.041 213.306 116.891C213.306 106.741 221.53 98.512 231.672 98.512C241.815 98.512 250.039 106.741 250.039 116.891Z" fill="#212121"/>
<path fill-rule="evenodd" clip-rule="evenodd" d="M246.366 15.1727C246.366 23.2868 239.787 29.8704 231.678 29.8704C223.555 29.8704 216.976 23.2868 216.976 15.1727C216.976 7.05872 223.555 0.475098 231.678 0.475098C239.787 0.475098 246.366 7.05872 246.366 15.1727Z" fill="#212121"/>
<path fill-rule="evenodd" clip-rule="evenodd" d="M341.744 167.751C341.744 179.937 331.876 189.798 319.713 189.798C307.536 189.798 297.667 179.937 297.667 167.751C297.667 155.566 307.536 145.705 319.713 145.705C331.876 145.705 341.744 155.566 341.744 167.751Z" fill="#212121"/>
<path fill-rule="evenodd" clip-rule="evenodd" d="M162.007 62.608C162.007 72.7578 153.783 80.9873 143.64 80.9873C133.498 80.9873 125.274 72.7578 125.274 62.608C125.274 52.4583 133.498 44.2288 143.64 44.2288C153.783 44.2288 162.007 52.4583 162.007 62.608Z" fill="#212121"/>
<path fill-rule="evenodd" clip-rule="evenodd" d="M338.071 62.608C338.071 72.7578 329.847 80.9873 319.704 80.9873C309.562 80.9873 301.338 72.7578 301.338 62.608C301.338 52.4583 309.562 44.2288 319.704 44.2288C329.847 44.2288 338.071 52.4583 338.071 62.608Z" fill="#212121"/>
<path fill-rule="evenodd" clip-rule="evenodd" d="M432.096 217.83C432.096 232.037 420.583 243.558 406.386 243.558C392.189 243.558 380.675 232.037 380.675 217.83C380.675 203.623 392.189 192.102 406.386 192.102C420.583 192.102 432.096 203.623 432.096 217.83Z" fill="#212121"/>
<path fill-rule="evenodd" clip-rule="evenodd" d="M424.75 119.236C424.75 129.386 416.526 137.615 406.383 137.615C396.24 137.615 388.016 129.386 388.016 119.236C388.016 109.086 396.24 100.857 406.383 100.857C416.526 100.857 424.75 109.086 424.75 119.236Z" fill="#212121"/>
</svg>
