<?xml version="1.0" encoding="UTF-8"?>
<svg width="512px" height="512px" viewBox="0 0 512 512" version="1.1" xmlns="http://www.w3.org/2000/svg" xmlns:xlink="http://www.w3.org/1999/xlink">
    <title>512*512_site logo</title>
    <g id="512*512_site-logo" stroke="none" stroke-width="1" fill="none" fill-rule="evenodd">
        <rect id="Rectangle" x="0" y="0" width="512" height="512"></rect>
        <g id="manufacturing_icon32-copy-4" fill="#FF9E1B" transform="translate(32.003200, 0.004800)">
            <path d="M231.9056,422.3904 C256.6416,422.3904 276.7056,442.4384 276.7056,467.1904 C276.7056,491.9424 256.6416,511.9904 231.9056,511.9904 C207.1536,511.9904 187.0896,491.9424 187.0896,467.1904 C187.0896,442.4384 207.1536,422.3904 231.9056,422.3904 Z M134.2752,370.0928 C156.7712,370.0928 175.0112,388.3328 175.0112,410.8288 C175.0112,433.3248 156.7712,451.5648 134.2752,451.5648 C111.7792,451.5648 93.5552,433.3248 93.5552,410.8288 C93.5552,388.3328 111.7792,370.0928 134.2752,370.0928 Z M329.5184,370.0928 C352.0144,370.0928 370.2544,388.3328 370.2544,410.8288 C370.2544,433.3248 352.0144,451.5648 329.5184,451.5648 C307.0224,451.5648 288.7984,433.3248 288.7984,410.8288 C288.7984,388.3328 307.0224,370.0928 329.5184,370.0928 Z M36.656,317.8096 C56.896,317.8096 73.312,334.2256 73.312,354.4656 C73.312,374.7056 56.896,391.1216 36.656,391.1216 C16.416,391.1216 0,374.7056 0,354.4656 C0,334.2256 16.416,317.8096 36.656,317.8096 Z M231.904,317.8096 C252.144,317.8096 268.56,334.2256 268.56,354.4656 C268.56,374.7056 252.144,391.1216 231.904,391.1216 C211.664,391.1216 195.248,374.7056 195.248,354.4656 C195.248,334.2256 211.664,317.8096 231.904,317.8096 Z M425.6512,317.8096 C445.8912,317.8096 462.3072,334.2256 462.3072,354.4656 C462.3072,374.7056 445.8912,391.1216 425.6512,391.1216 C405.4112,391.1216 388.9952,374.7056 388.9952,354.4656 C388.9952,334.2256 405.4112,317.8096 425.6512,317.8096 Z M329.5184,265.5104 C347.5184,265.5104 362.1104,280.1024 362.1104,298.1024 C362.1104,316.1024 347.5184,330.6944 329.5184,330.6944 C311.5344,330.6944 296.9424,316.1024 296.9424,298.1024 C296.9424,280.1024 311.5344,265.5104 329.5184,265.5104 Z M134.272,265.5104 C152.272,265.5104 166.864,280.1024 166.864,298.1024 C166.864,316.1024 152.272,330.6944 134.272,330.6944 C116.288,330.6944 101.696,316.1024 101.696,298.1024 C101.696,280.1024 116.288,265.5104 134.272,265.5104 Z M36.6544,213.2272 C52.3984,213.2272 65.1664,225.9952 65.1664,241.7392 C65.1664,257.4832 52.3984,270.2512 36.6544,270.2512 C20.9104,270.2512 8.1424,257.4832 8.1424,241.7392 C8.1424,225.9952 20.9104,213.2272 36.6544,213.2272 Z M231.9008,213.2272 C247.6448,213.2272 260.4128,225.9952 260.4128,241.7392 C260.4128,257.4832 247.6448,270.2512 231.9008,270.2512 C216.1568,270.2512 203.3888,257.4832 203.3888,241.7392 C203.3888,225.9952 216.1568,213.2272 231.9008,213.2272 Z M425.6496,212.3616 C441.3936,212.3616 454.1616,225.1296 454.1616,240.8736 C454.1616,256.6176 441.3936,269.3856 425.6496,269.3856 C409.9056,269.3856 397.1376,256.6176 397.1376,240.8736 C397.1376,225.1296 409.9056,212.3616 425.6496,212.3616 Z M134.2848,160.944 C147.7728,160.944 158.7168,171.872 158.7168,185.376 C158.7168,198.88 147.7728,209.808 134.2848,209.808 C120.7808,209.808 109.8368,198.88 109.8368,185.376 C109.8368,171.872 120.7808,160.944 134.2848,160.944 Z M329.5328,160.944 C343.0208,160.944 353.9648,171.872 353.9648,185.376 C353.9648,198.88 343.0208,209.808 329.5328,209.808 C316.0288,209.808 305.0848,198.88 305.0848,185.376 C305.0848,171.872 316.0288,160.944 329.5328,160.944 Z M425.6464,111.2432 C436.8944,111.2432 446.0144,120.3632 446.0144,131.6112 C446.0144,142.8592 436.8944,151.9792 425.6464,151.9792 C414.3984,151.9792 405.2784,142.8592 405.2784,131.6112 C405.2784,120.3632 414.3984,111.2432 425.6464,111.2432 Z M36.6528,108.6448 C47.9008,108.6448 57.0208,117.7648 57.0208,129.0128 C57.0208,140.2608 47.9008,149.3808 36.6528,149.3808 C25.4048,149.3808 16.2848,140.2608 16.2848,129.0128 C16.2848,117.7648 25.4048,108.6448 36.6528,108.6448 Z M231.8992,108.6448 C243.1472,108.6448 252.2672,117.7648 252.2672,129.0128 C252.2672,140.2608 243.1472,149.3808 231.8992,149.3808 C220.6512,149.3808 211.5312,140.2608 211.5312,129.0128 C211.5312,117.7648 220.6512,108.6448 231.8992,108.6448 Z M134.2752,48.488 C145.5232,48.488 154.6432,57.608 154.6432,68.856 C154.6432,80.104 145.5232,89.224 134.2752,89.224 C123.0272,89.224 113.9072,80.104 113.9072,68.856 C113.9072,57.608 123.0272,48.488 134.2752,48.488 Z M329.5232,48.488 C340.7712,48.488 349.8912,57.608 349.8912,68.856 C349.8912,80.104 340.7712,89.224 329.5232,89.224 C318.2752,89.224 309.1552,80.104 309.1552,68.856 C309.1552,57.608 318.2752,48.488 329.5232,48.488 Z M231.9056,0 C240.8976,0 248.1936,7.296 248.1936,16.288 C248.1936,25.28 240.8976,32.576 231.9056,32.576 C222.8976,32.576 215.6016,25.28 215.6016,16.288 C215.6016,7.296 222.8976,0 231.9056,0 Z" id="Combined-Shape"></path>
        </g>
    </g>
</svg>