<?xml version="1.0" encoding="UTF-8"?>
<svg width="462px" height="512px" viewBox="0 0 462 512" version="1.1" xmlns="http://www.w3.org/2000/svg" xmlns:xlink="http://www.w3.org/1999/xlink">
    <title>512px/ logo</title>
    <g id="Site-Logo" stroke="none" stroke-width="1" fill="none" fill-rule="evenodd">
        <g id="Group" transform="translate(-25.000000, 0.000000)">
            <rect id="Rectangle" x="0" y="0" width="512" height="512"></rect>
            <path d="M256.7515,512 C232.015948,512 211.96528,491.951624 211.96528,467.19916 C211.96528,442.446696 232.015948,422.39832 256.7515,422.39832 C281.471063,422.39832 301.521731,442.446696 301.521731,467.19916 C301.521731,491.951624 281.471063,512 256.7515,512 Z" id="Fill-1" fill="#E8581B"></path>
            <path d="M159.185975,451.573267 C136.704923,451.573267 118.493033,433.332925 118.493033,410.836503 C118.493033,388.340081 136.704923,370.099739 159.185975,370.099739 C181.667027,370.099739 199.894906,388.340081 199.894906,410.836503 C199.894906,433.332925 181.667027,451.573267 159.185975,451.573267 Z" id="Fill-3" fill="#E8581B"></path>
            <path d="M61.6316423,391.128934 C41.4050917,391.128934 25,374.712626 25,354.472246 C25,334.231867 41.4050917,317.815559 61.6316423,317.815559 C81.858193,317.815559 98.2632847,334.231867 98.2632847,354.472246 C98.2632847,374.712626 81.858193,391.128934 61.6316423,391.128934 Z" id="Fill-5" fill="#E8581B"></path>
            <path d="M293.381544,354.472246 C293.381544,374.712626 276.976452,391.128934 256.749901,391.128934 C236.523351,391.128934 220.118259,374.712626 220.118259,354.472246 C220.118259,334.231867 236.523351,317.815559 256.749901,317.815559 C276.976452,317.815559 293.381544,334.231867 293.381544,354.472246" id="Fill-7" fill="#FE7217"></path>
            <path d="M450.368358,391.128934 C430.141807,391.128934 413.736715,374.712626 413.736715,354.472246 C413.736715,334.231867 430.141807,317.815559 450.368358,317.815559 C470.594908,317.815559 487,334.231867 487,354.472246 C487,374.712626 470.594908,391.128934 450.368358,391.128934 Z" id="Fill-9" fill="#E8581B"></path>
            <path d="M354.299437,451.573267 C331.818386,451.573267 313.606495,433.332925 313.606495,410.836503 C313.606495,388.340081 331.818386,370.099739 354.299437,370.099739 C376.780489,370.099739 395.008368,388.340081 395.008368,410.836503 C395.008368,433.332925 376.780489,451.573267 354.299437,451.573267 Z" id="Fill-12" fill="#E8581B"></path>
            <path d="M386.86978,298.10799 C386.86978,316.108327 372.287476,330.700601 354.299437,330.700601 C336.327388,330.700601 321.745084,316.108327 321.745084,298.10799 C321.745084,280.107652 336.327388,265.515378 354.299437,265.515378 C372.287476,265.515378 386.86978,280.107652 386.86978,298.10799" id="Fill-14" fill="#FE7217"></path>
            <path d="M191.75312,298.10799 C191.75312,316.108327 177.170816,330.700601 159.182777,330.700601 C141.210727,330.700601 126.628424,316.108327 126.628424,298.10799 C126.628424,280.107652 141.210727,265.515378 159.182777,265.515378 C177.170816,265.515378 191.75312,280.107652 191.75312,298.10799" id="Fill-16" fill="#FE7217"></path>
            <path d="M183.611334,185.379476 C183.611334,198.883729 172.674606,209.811934 159.195569,209.811934 C145.700542,209.811934 134.763814,198.883729 134.763814,185.379476 C134.763814,171.875223 145.700542,160.947018 159.195569,160.947018 C172.674606,160.947018 183.611334,171.875223 183.611334,185.379476" id="Fill-18" fill="#FF9E1B"></path>
            <path d="M90.1230974,241.743733 C90.1230974,257.488028 77.3635816,270.256267 61.6300434,270.256267 C45.8965052,270.256267 33.1369894,257.488028 33.1369894,241.743733 C33.1369894,225.999437 45.8965052,213.231198 61.6300434,213.231198 C77.3635816,213.231198 90.1230974,225.999437 90.1230974,241.743733" id="Fill-20" fill="#FE7217"></path>
            <path d="M81.9829101,129.015219 C81.9829101,140.26343 72.8689702,149.383601 61.6284445,149.383601 C50.3879187,149.383601 41.2739789,140.26343 41.2739789,129.015219 C41.2739789,117.767008 50.3879187,108.646837 61.6284445,108.646837 C72.8689702,108.646837 81.9829101,117.767008 81.9829101,129.015219" id="Fill-22" fill="#FF9E1B"></path>
            <path d="M285.239757,241.743733 C285.239757,257.488028 272.480242,270.256267 256.746703,270.256267 C241.013165,270.256267 228.25365,257.488028 228.25365,241.743733 C228.25365,225.999437 241.013165,213.231198 256.746703,213.231198 C272.480242,213.231198 285.239757,225.999437 285.239757,241.743733" id="Fill-24" fill="#FF9E1B"></path>
            <path d="M277.09957,129.015219 C277.09957,140.26343 267.98563,149.383601 256.745105,149.383601 C245.504579,149.383601 236.390639,140.26343 236.390639,129.015219 C236.390639,117.767008 245.504579,108.646837 256.745105,108.646837 C267.98563,108.646837 277.09957,117.767008 277.09957,129.015219" id="Fill-26" fill="#FF9E1B"></path>
            <path d="M273.028677,16.2883054 C273.028677,25.280474 265.737525,32.5766108 256.7515,32.5766108 C247.749486,32.5766108 240.458334,25.280474 240.458334,16.2883054 C240.458334,7.2961368 247.749486,0 256.7515,0 C265.737525,0 273.028677,7.2961368 273.028677,16.2883054" id="Fill-28" fill="#FDBC57"></path>
            <path d="M378.729593,185.379476 C378.729593,198.883729 367.792865,209.811934 354.313828,209.811934 C340.818801,209.811934 329.882073,198.883729 329.882073,185.379476 C329.882073,171.875223 340.818801,160.947018 354.313828,160.947018 C367.792865,160.947018 378.729593,171.875223 378.729593,185.379476" id="Fill-30" fill="#FF9E1B"></path>
            <path d="M179.540441,68.8572911 C179.540441,80.105502 170.426501,89.225673 159.185975,89.225673 C147.945449,89.225673 138.831509,80.105502 138.831509,68.8572911 C138.831509,57.6090802 147.945449,48.4889092 159.185975,48.4889092 C170.426501,48.4889092 179.540441,57.6090802 179.540441,68.8572911" id="Fill-32" fill="#FDBC57"></path>
            <path d="M374.6587,68.8572911 C374.6587,80.105502 365.54476,89.225673 354.304234,89.225673 C343.063708,89.225673 333.949768,80.105502 333.949768,68.8572911 C333.949768,57.6090802 343.063708,48.4889092 354.304234,48.4889092 C365.54476,48.4889092 374.6587,57.6090802 374.6587,68.8572911" id="Fill-34" fill="#FDBC57"></path>
            <path d="M478.859813,240.878116 C478.859813,256.622412 466.100297,269.390651 450.366759,269.390651 C434.633221,269.390651 421.873705,256.622412 421.873705,240.878116 C421.873705,225.133821 434.633221,212.365582 450.366759,212.365582 C466.100297,212.365582 478.859813,225.133821 478.859813,240.878116" id="Fill-36" fill="#FE7217"></path>
            <path d="M470.718026,131.613668 C470.718026,142.861879 461.604087,151.98205 450.363561,151.98205 C439.123035,151.98205 430.009095,142.861879 430.009095,131.613668 C430.009095,120.365457 439.123035,111.245286 450.363561,111.245286 C461.604087,111.245286 470.718026,120.365457 470.718026,131.613668" id="Fill-38" fill="#FF9E1B"></path>
        </g>
    </g>
</svg>